<?xml version="1.0" encoding="UTF-8"?>
<svg width="32px" height="32px" viewBox="0 0 32 32" version="1.1" xmlns="http://www.w3.org/2000/svg" xmlns:xlink="http://www.w3.org/1999/xlink">
    <title>baozhang</title>
    <defs>
        <linearGradient x1="100%" y1="50%" x2="0.824167833%" y2="50%" id="linearGradient-1">
            <stop stop-color="#46DDB7" offset="0%"></stop>
            <stop stop-color="#00C2C6" offset="100%"></stop>
            <stop stop-color="#00BCD4" offset="100%"></stop>
        </linearGradient>
    </defs>
    <g id="home-page" stroke="none" stroke-width="1" fill="none" fill-rule="evenodd">
        <g id="1-首页" transform="translate(-406.000000, -2441.000000)" fill-rule="nonzero">
            <g id="btm2" transform="translate(0.000000, 2347.000000)">
                <g id="cont" transform="translate(406.000000, 30.000000)">
                    <g id="baozhang" transform="translate(0.000000, 64.000000)">
                        <circle id="椭圆形备份" fill="url(#linearGradient-1)" cx="16" cy="16" r="16"></circle>
                        <path d="M23.523817,8.41379876 L23.0476339,8.41379876 C18.5714286,8.41379876 16.5714286,6.48277333 16.5714286,6.48277333 L16.0952455,6 L15.6190625,6.48277333 C15.6190625,6.48277333 13.7142857,8.41379876 9.14285714,8.41379876 L8,8.41379876 L8,17.1034471 C8,19.4206867 8.85714286,22.7034503 15.8095313,25.2137856 L16,25.3103448 L16.1904911,25.2137856 C23.2381027,22.7034503 24,19.3241275 24,17.1034471 L24,8.41379876 L23.523817,8.41379876 M15.3333482,19.3241275 L11.2381027,15.7517316 L12.2857143,14.8827668 L14.4762054,16.4275781 C14.4762054,16.4275781 17.4285714,13.3379328 20.2857143,11.8896581 L20.6666741,12.3724088 C20.7619196,12.3724088 17.2381027,15.3655175 15.3333482,19.3241275" id="形状" fill="#FFFFFF"></path>
                    </g>
                </g>
            </g>
        </g>
    </g>
</svg>