<?xml version="1.0" encoding="UTF-8"?>
<svg width="14px" height="14px" viewBox="0 0 14 14" version="1.1" xmlns="http://www.w3.org/2000/svg" xmlns:xlink="http://www.w3.org/1999/xlink">
    <title>huiy</title>
    <g id="home-page" stroke="none" stroke-width="1" fill="none" fill-rule="evenodd">
        <g id="1-首页" transform="translate(-1376.000000, -11.000000)">
            <g id="编组-2" transform="translate(1176.000000, 10.000000)">
                <g id="huiy" transform="translate(200.000000, 1.000000)">
                    <rect id="矩形" x="0" y="0" width="14" height="14"></rect>
                    <path d="M13.6832116,4.88553987 L10.9430668,1.55856543 C10.6690524,1.21823731 10.2212344,1 9.77185066,1 L4.2398898,1 C3.79207186,1 3.36774086,1.19381915 3.06867363,1.55856543 L0.328528856,4.88553987 C-0.144341843,5.4441053 -0.0958021359,6.26974437 0.403687112,6.80541778 L5.96070072,12.5375811 L6.03585898,12.6108356 C6.30987346,12.853491 6.68409894,13 7.05675863,13 L7.10686414,13 C7.50614238,12.9755818 7.87880207,12.830599 8.15281655,12.5391072 L13.5845664,6.83136208 C14.1075426,6.26974437 14.1325954,5.4441053 13.6832116,4.88553987 L13.6832116,4.88553987 Z M9.89109127,6.86239194 L7.67238907,9.68354307 C7.33053465,10.0836507 6.79831424,10.1087555 6.45645983,9.73375266 L6.41356045,9.68354307 L4.10905949,6.83728715 C3.96025227,6.63801786 3.96025227,6.31322459 4.13050918,6.13749104 C4.32221577,5.93822175 4.57827144,5.96332654 4.74852834,6.16259584 L6.91360632,8.8393944 C6.97795539,8.91784688 7.08386323,8.91784688 7.1482123,8.8393944 L9.25028181,6.21437447 C9.42053872,6.01510518 9.67659438,5.99000038 9.86830098,6.16416488 C10.0398985,6.33676034 10.0398985,6.6615536 9.89109127,6.86239194 Z" id="形状" fill="#999999" fill-rule="nonzero"></path>
                </g>
            </g>
        </g>
    </g>
</svg>