<?xml version="1.0" encoding="UTF-8"?>
<svg width="176px" height="36px" viewBox="0 0 176 36" version="1.1" xmlns="http://www.w3.org/2000/svg" xmlns:xlink="http://www.w3.org/1999/xlink">
    <title>logo</title>
    <defs>
        <linearGradient x1="126.841546%" y1="50%" x2="24.8163804%" y2="50%" id="linearGradient-1">
            <stop stop-color="#46DDB7" offset="0%"></stop>
            <stop stop-color="#00C2C6" offset="100%"></stop>
            <stop stop-color="#00BCD4" offset="100%"></stop>
        </linearGradient>
        <linearGradient x1="110.175075%" y1="50%" x2="21.9467091%" y2="50%" id="linearGradient-2">
            <stop stop-color="#90FAA7" offset="0%"></stop>
            <stop stop-color="#00C2C6" offset="100%"></stop>
            <stop stop-color="#00BCD4" offset="100%"></stop>
        </linearGradient>
    </defs>
    <g id="home-page" stroke="none" stroke-width="1" fill="none" fill-rule="evenodd">
        <g id="1-首页" transform="translate(-360.000000, -63.000000)" fill-rule="nonzero">
            <g id="logo栏" transform="translate(0.000000, 36.000000)">
                <g id="logo" transform="translate(360.156976, 27.000000)">
                    <path d="M69.8430238,17.94 C69.8430238,16.5592881 68.7237357,15.44 67.3430238,15.44 L48.3430238,15.44 C46.9623119,15.44 45.8430238,16.5592881 45.8430238,17.94 C45.8430238,19.3207119 46.9623119,20.44 48.3430238,20.44 L67.3430238,20.44 C68.7237357,20.44 69.8430238,19.3207119 69.8430238,17.94 Z M75.131764,29.8154897 C75.1583291,29.4391496 75.4849483,29.1556009 75.8612884,29.1821659 C75.9816219,29.19066 76.0975602,29.2308679 76.1973146,29.2987012 L77.6811289,30.3077004 C78.3444947,30.7587916 79.1281694,31 79.9303772,31 L93.5775368,31 C94.7637505,31 95.8186263,30.2455615 96.2019982,29.1230068 C96.4551966,28.3816142 96.059437,27.5753389 95.3180444,27.3221405 C95.1704497,27.2717344 95.0155527,27.2460137 94.8595881,27.2460137 L83.3082686,27.2460137 C82.1942637,27.2460137 81.2911843,26.3429343 81.2911843,25.2289294 L81.2911843,24.5357024 C81.2911843,23.8045562 81.8838954,23.2118451 82.6150416,23.2118451 C83.3461878,23.2118451 83.9388989,22.619134 83.9388989,21.8879878 L83.9388989,21.7521033 C83.9388989,21.0209571 83.3461878,20.428246 82.6150416,20.428246 C81.8838954,20.428246 81.2911843,19.8355349 81.2911843,19.1043887 L81.2911843,18.1654757 C81.2911843,17.4035444 81.9088517,16.785877 82.670783,16.785877 C83.4327143,16.785877 84.0503817,16.1682096 84.0503817,15.4062783 L84.0503817,14.8156142 C84.0503817,13.8304909 83.2517814,13.0318907 82.2666581,13.0318907 L81.0820235,13.0318907 C80.7511558,13.0318907 80.4829346,12.7636695 80.4829346,12.4328018 C80.4829346,12.1019342 80.7511558,11.833713 81.0820235,11.833713 L81.9461453,11.833713 C82.7542543,11.833713 83.409356,11.1786112 83.409356,10.3705023 L83.409356,9.54293735 C83.409356,8.7348284 82.7542543,8.07972665 81.9461453,8.07972665 C81.1380364,8.07972665 80.4829346,7.42462491 80.4829346,6.61651595 L80.4829346,6.53986333 C80.4829346,5.68942029 79.7935143,5 78.9430713,5 L77.1454289,5 C76.2949859,5 75.6055656,5.68942029 75.6055656,6.53986333 C75.6055656,7.39030636 74.9161453,8.07972665 74.0657023,8.07972665 L74.0587429,8.07972665 C73.2044563,8.07972665 72.5119201,8.77226278 72.5119201,9.62654939 L72.5119201,10.2868902 C72.5119201,11.1411769 73.2044563,11.833713 74.0587429,11.833713 L75.0064768,11.833713 C75.3373444,11.833713 75.6055656,12.1019342 75.6055656,12.4328018 C75.6055656,12.7636695 75.3373444,13.0318907 75.0064768,13.0318907 L73.720017,13.0318907 C72.6833823,13.0318907 71.8430238,13.8722491 71.8430238,14.9088838 C71.8430238,15.9455185 72.6833823,16.785877 73.720017,16.785877 L74.1702256,16.785877 C75.4555036,16.785877 76.4974274,17.8278007 76.4974274,19.1130788 L76.4974274,25.5747851 C76.4974274,25.7668316 76.3417429,25.922516 76.1496965,25.922516 C76.0798701,25.922516 76.011661,25.901494 75.9539491,25.8621868 C75.6171952,25.6328259 75.4268829,25.242448 75.453618,24.8358833 L75.7512463,20.3098165 C75.8056285,19.4828206 75.1793013,18.7683224 74.3523053,18.7139402 C74.319527,18.7117848 74.2866867,18.7107062 74.2538376,18.7107062 C73.3527963,18.7107062 72.6068159,19.4108188 72.5497141,20.3100489 L71.9715708,29.4145645 C71.9193876,30.236338 72.5432637,30.9448198 73.3650372,30.9970031 C73.3964929,30.9990005 73.4280041,31 73.4595232,31 L73.8606944,31 C74.5296163,31 75.0846635,30.4827513 75.131764,29.8154897 Z M96.2185894,24.2603481 C96.4630632,23.5635925 96.0964163,22.8005753 95.3996606,22.5561015 C95.2574139,22.5061908 95.1077506,22.4806962 94.9570017,22.4806962 L92.2465792,22.4806962 C90.6917209,22.4806962 89.4312591,21.2202344 89.4312591,19.665376 C89.4312591,18.1105176 90.6917209,16.8500559 92.2465792,16.8500559 L92.7299016,16.8500559 C94.5516916,16.8500559 96.0285442,15.3732033 96.0285442,13.5514133 L96.0285442,10.04 C96.0285442,7.830861 94.2376832,6.04 92.0285442,6.04 L86.6506087,6.04 C85.6523071,6.04 84.8430238,6.84928331 84.8430238,7.84758487 C84.8430238,8.84588643 85.6523071,9.65516975 86.6506087,9.65516975 L89.0882335,9.65516975 C90.3422664,9.65516975 91.3588609,10.6717643 91.3588609,11.9257972 C91.3588609,13.1798301 90.3422664,14.1964246 89.0882335,14.1964246 L88.1009424,14.1964246 C86.3016436,14.1964246 84.8430238,15.6550444 84.8430238,17.4543431 L84.8430238,22.04 C84.8430238,24.249139 86.6338848,26.04 88.8430238,26.04 L93.708133,26.04 C94.8379381,26.04 95.8445274,25.3264331 96.2185894,24.2603481 Z M120.647397,26.7406143 L119.681634,24.7413531 C119.014058,23.3593788 117.61462,22.4812287 116.079852,22.4812287 L115.065681,22.4812287 C114.470473,22.4812287 113.987961,22.9637404 113.987961,23.5589489 C113.987961,23.7971724 114.066891,24.0286829 114.212414,24.2172924 C114.576007,24.6885388 114.488737,25.3653099 114.01749,25.728903 C113.828881,25.8744258 113.59737,25.9533561 113.359147,25.9533561 L110.678406,25.9533561 C109.754678,25.9533561 109.005848,25.204526 109.005848,24.2807972 C109.005848,23.8200631 109.195904,23.3797338 109.531171,23.0637088 L111.441161,21.2633396 C112.183385,20.5637148 113.164841,20.1740614 114.184827,20.1740614 L120.87886,20.1740614 C121.963638,20.1740614 122.843024,19.2946753 122.843024,18.2098976 C122.843024,17.1251199 121.963638,16.2457338 120.87886,16.2457338 L115.36752,16.2457338 C114.416887,16.2457338 113.646246,15.4750931 113.646246,14.5244596 C113.646246,13.5738261 114.416887,12.8031854 115.36752,12.8031854 L119.912232,12.8031854 C120.997009,12.8031854 121.876395,11.9237993 121.876395,10.8390216 C121.876395,9.75424389 120.997009,8.87485779 119.912232,8.87485779 L115.583675,8.87485779 C114.513662,8.87485779 113.646246,8.00744133 113.646246,6.9374289 C113.646246,5.86741646 112.778829,5 111.708817,5 L110.142938,5 C109.072926,5 108.205509,5.86741646 108.205509,6.9374289 C108.205509,8.00744133 107.338093,8.87485779 106.268081,8.87485779 L101.773816,8.87485779 C100.689038,8.87485779 99.8096521,9.75424389 99.8096521,10.8390216 C99.8096521,11.9237993 100.689038,12.8031854 101.773816,12.8031854 L106.484235,12.8031854 C107.434869,12.8031854 108.205509,13.5738261 108.205509,14.5244596 C108.205509,15.4750931 107.434869,16.2457338 106.484235,16.2457338 L100.807188,16.2457338 C99.7224099,16.2457338 98.8430238,17.1251199 98.8430238,18.2098976 C98.8430238,19.2946753 99.7224099,20.1740614 100.807188,20.1740614 L102.336695,20.1740614 C103.267135,20.1740614 104.021406,20.9283323 104.021406,21.8587725 C104.021406,22.2398277 103.892224,22.6096277 103.654951,22.9077966 L100.486398,26.8895598 C99.9230423,27.5975006 99.6163264,28.4755145 99.6163264,29.3802518 L99.6163264,29.4914676 C99.6163264,30.324607 100.291719,31 101.124859,31 L117.974625,31 C119.613959,31 120.942902,29.671057 120.942902,28.0317226 C120.942902,27.5845894 120.841886,27.1432335 120.647397,26.7406143 Z M128.943358,28.9395667 L129.376416,27.4150299 C129.477413,27.0594815 129.528643,26.6916504 129.528643,26.3220357 L129.528643,17.846785 C129.528643,17.5466302 129.771966,17.3033067 130.072121,17.3033067 C130.372276,17.3033067 130.615599,17.5466302 130.615599,17.846785 L130.615599,27.5461064 C130.615599,27.9309202 130.303646,28.2428734 129.918832,28.2428734 C129.66415,28.2428734 129.457689,28.4493344 129.457689,28.7040168 C129.457689,28.7659411 129.470161,28.8272311 129.49436,28.8842309 L129.807349,29.6214367 C130.1622,30.4572427 130.982282,31 131.890297,31 L132.538676,31 C133.723902,31 134.684718,30.0391841 134.684718,28.8539576 L134.684718,16.9463389 C134.684718,15.5225279 133.530491,14.368301 132.10668,14.368301 L130.807434,14.368301 C130.101177,14.368301 129.528643,13.7957666 129.528643,13.0895097 C129.528643,12.3832527 130.101177,11.8107184 130.807434,11.8107184 L134.008677,11.8107184 C134.178208,11.8107184 134.315641,11.9481508 134.315641,12.1176824 C134.315641,12.1849654 134.293534,12.2503847 134.252723,12.3038769 C134.14989,12.4386598 134.175792,12.6312851 134.310574,12.7341175 C134.364067,12.7749292 134.429486,12.7970353 134.496769,12.7970353 L137.825989,12.7970353 C138.552758,12.7970353 139.204327,12.3490556 139.46454,11.6704675 C139.724752,10.9918794 140.376322,10.5438997 141.103091,10.5438997 L146.905167,10.5438997 C147.975416,10.5438997 148.843024,9.67629183 148.843024,8.60604333 C148.843024,7.53579483 147.975416,6.668187 146.905167,6.668187 L141.914892,6.668187 C141.606537,6.668187 141.356566,6.41821597 141.356566,6.10986107 C141.356566,6.01318096 141.381671,5.91815764 141.429423,5.8340935 C141.581725,5.56597641 141.487839,5.22515922 141.219722,5.07285699 C141.135657,5.02510489 141.040634,5 140.943954,5 L139.325187,5 C137.776524,5 136.392379,5.96630832 135.858639,7.42008871 L135.260189,9.05012165 C135.225581,9.14438719 135.121108,9.1927487 135.026842,9.1581401 C134.955262,9.13186027 134.907684,9.06370894 134.907684,8.98745724 C134.907684,8.42257763 134.449758,7.96465222 133.884879,7.96465222 L133.681374,7.96465222 C132.95256,7.96465222 132.309071,7.48905958 132.095196,6.7923336 L132.009133,6.51197263 C131.74411,5.64862406 130.946729,5.05929304 130.043619,5.05929304 L127.723671,5.05929304 C127.095191,5.05929304 126.585707,5.56877662 126.585707,6.19725647 C126.585707,6.30372161 126.600648,6.40966002 126.630092,6.51197263 L126.666609,6.63886288 C126.82524,7.19007379 126.50699,7.76551398 125.955779,7.92414451 C125.862404,7.95101669 125.765719,7.96465222 125.668553,7.96465222 C124.906622,7.96465222 124.288955,8.58231958 124.288955,9.34425089 L124.288955,11.3508521 C124.288955,11.6048292 124.494844,11.8107184 124.748821,11.8107184 C125.002798,11.8107184 125.208687,12.0166075 125.208687,12.2705846 L125.208687,25.3744353 C125.208687,25.7238378 125.162907,26.0717343 125.072516,26.4092422 L124.427049,28.8193273 C124.179518,29.7435755 124.728106,30.6934904 125.652354,30.9410217 C125.798535,30.9801718 125.949216,31 126.100549,31 L126.216126,31 C127.483564,31 128.597033,30.1587708 128.943358,28.9395667 Z M142.77071,29.1545 L142.965502,28.548254 C143.125826,28.0492814 142.851297,27.5148157 142.352325,27.3544915 C142.258509,27.3243478 142.160571,27.309 142.062032,27.309 C141.343149,27.309 140.760379,26.7262301 140.760379,26.0073471 L140.760379,23.45075 C140.760379,23.0788153 141.061892,22.7773027 141.433826,22.7773027 C141.717795,22.7773027 141.97125,22.9554271 142.067451,23.222604 L144.025083,28.6594936 C144.530716,30.0637774 145.86288,31 147.35542,31 C148.323379,31 149.108065,30.2153143 149.108065,29.2473553 C149.108065,29.0463311 149.073481,28.8468051 149.005827,28.6575073 L147.141128,23.4400412 C147.033171,23.1379762 147.190527,22.8055879 147.492592,22.6976312 C147.555325,22.6752109 147.621447,22.66375 147.688065,22.66375 C148.170229,22.66375 148.588189,22.330021 148.694909,21.859816 L149.420015,18.664994 C149.555532,18.0679062 149.181354,17.4740127 148.584267,17.3384959 C148.503754,17.3202225 148.421452,17.311 148.338892,17.311 C147.524458,17.311 146.816096,17.8690479 146.625447,18.6608527 L146.517986,19.1071605 C146.456395,19.3629597 146.199099,19.5203966 145.9433,19.4588058 C145.786235,19.4209879 145.659038,19.3061474 145.60542,19.15375 C145.284806,18.2424579 144.423954,17.63275 143.457907,17.63275 L141.403879,17.63275 C141.048484,17.63275 140.760379,17.3446452 140.760379,16.98925 C140.760379,16.6338548 141.048484,16.34575 141.403879,16.34575 L146.066846,16.34575 C147.301688,16.34575 148.37962,15.5091056 148.685999,14.312875 C148.909186,13.4414631 148.383695,12.5541157 147.512283,12.3309291 C147.38024,12.2971101 147.244474,12.28 147.108168,12.28 L144.390286,12.28 C144.169077,12.28 143.948248,12.2983501 143.730072,12.3348616 L139.182809,13.0958407 C137.255261,13.4184137 135.843024,15.0866263 135.843024,17.0409791 L135.843024,27.8326446 C135.843024,29.5819267 137.261097,31 139.010379,31 L140.23931,31 C141.394403,31 142.41736,30.2542199 142.77071,29.1545 Z M158.493454,28.277937 L158.493454,18.4381877 C158.493454,18.0742178 158.198398,17.7791619 157.834428,17.7791619 C157.618525,17.7791619 157.443501,17.6041381 157.443501,17.3882352 C157.443501,17.3227387 157.459957,17.258292 157.491358,17.2008136 L159.943236,12.7127207 C160.238015,12.1731367 160.039561,11.4967522 159.499977,11.2019735 C159.336288,11.1125492 159.152755,11.0656852 158.966233,11.0656852 C158.357328,11.0656852 157.863713,10.5720703 157.863713,9.96316559 C157.863713,9.77526916 157.911734,9.59049026 158.003218,9.42636878 L159.124282,7.41517605 C159.561058,6.63159797 159.279919,5.64230533 158.496341,5.2055291 C158.254544,5.07074826 157.982312,5 157.705488,5 L157.284631,5 C155.836981,5 154.502304,5.78218272 153.794832,7.04518393 L151.918136,10.3955206 C151.625805,10.9173995 151.81189,11.5774472 152.333769,11.8697784 C152.495479,11.9603606 152.677729,12.0079275 152.863081,12.0079275 C153.466768,12.0079275 153.956153,12.4973124 153.956153,13.1009992 C153.956153,13.2850897 153.909659,13.4661985 153.820984,13.6275243 L151.374404,18.078564 C151.200831,18.3943446 151.316113,18.7910443 151.631893,18.9646177 C151.728189,19.0175478 151.836292,19.0453001 151.946176,19.0453001 C152.55543,19.0453001 153.049328,19.539198 153.049328,20.148452 L153.049328,28.277937 C153.049328,29.7812909 154.268037,31 155.771391,31 C157.274744,31 158.493454,29.7812909 158.493454,28.277937 Z M175.843024,7 C175.843024,5.8954305 174.947593,5 173.843024,5 L162.843024,5 C161.738454,5 160.843024,5.8954305 160.843024,7 C160.843024,8.1045695 161.738454,9 162.843024,9 L173.843024,9 C174.947593,9 175.843024,8.1045695 175.843024,7 Z M172.328738,27 L172.328738,19.0048405 C172.328738,18.0343972 173.115438,17.2476976 174.085881,17.2476976 C175.056324,17.2476976 175.843024,16.4609979 175.843024,15.4905547 L175.843024,15.1238488 C175.843024,13.9508795 174.892144,13 173.719175,13 L160.966873,13 C159.793903,13 158.843024,13.9508795 158.843024,15.1238488 C158.843024,16.2968181 159.793903,17.2476976 160.966873,17.2476976 L162.843024,17.2476976 C165.052163,17.2476976 166.843024,19.0385586 166.843024,21.2476976 L166.843024,22.8266078 C166.843024,24.6570372 165.359168,26.1408935 163.528738,26.1408935 L162.786054,26.1408935 C161.775473,26.1408935 160.956235,26.9601316 160.956235,27.970713 C160.956235,28.1748629 160.990398,28.3775736 161.05731,28.5704467 C161.561868,30.0248458 162.932335,31 164.471769,31 L168.328738,31 C170.537877,31 172.328738,29.209139 172.328738,27 Z" id="一起去旅行" fill="url(#linearGradient-1)"></path>
                    <path d="M18.351816,13.0825137 C18.2471405,13.088449 18.1427987,13.099829 18.0383233,13.118603 L17.8809094,13.1496882 L13.776,14.104 L13.709652,14.202162 C13.6813609,14.2467825 13.6543237,14.2923934 13.6286916,14.3391938 L13.5536103,14.4819837 L7.36012296,27.273294 L7.29540538,27.4171828 C6.77388034,28.6766657 7.27023776,30.1297669 8.45044378,30.7985922 L8.58932311,30.8718141 L17.6665571,35.3314239 C16.4562861,36.2020969 14.8369357,36.2242301 13.6042603,35.3869471 L4.283,29.052 L4.3837384,29.4903796 C2.95035807,29.0908827 1.91419192,27.8371452 1.78441548,26.3452579 L0.776945852,14.730644 C0.691485037,13.7442281 1.41606724,12.8745335 2.39568403,12.7877204 L16.5309452,11.933966 C17.3248036,11.8635403 18.0684269,12.3325944 18.351816,13.0825137 Z M34.7959432,13.1740648 C35.9103992,14.1660738 36.2960833,15.7504697 35.7634689,17.1486749 L31.616,28.027 L31.6060341,28.1735576 C31.4695318,29.5875995 30.5144089,30.7953668 29.1619702,31.2382132 L18.1537548,34.8397533 C17.2188166,35.1455275 16.2145632,34.6299966 15.9102227,33.6880421 L11.904642,20.00649 C11.6579397,19.2431689 11.9443781,18.4077966 12.6060284,17.9609581 C12.6353165,18.0623609 12.6697962,18.1622113 12.7114582,18.2605295 L12.7769374,18.4080369 L18.9704247,31.1993472 L19.0431441,31.3393048 C19.7073484,32.5286899 21.1496904,33.0293155 22.3995166,32.5042755 L22.5423003,32.4391174 L29.3716761,29.0853604 C29.3523865,29.0786579 29.3331385,29.0716017 29.3139393,29.0641887 L16.2377041,23.5897738 C15.4935402,23.3025248 15.0293043,22.5525771 15.1009544,21.7534168 C15.1976192,21.7943041 15.2963534,21.8301505 15.3984255,21.8594102 L15.5534363,21.9009809 L29.3197361,25.1024026 L29.4734784,25.1335543 C30.8090971,25.3621034 32.1030296,24.5480574 32.4844975,23.239245 L32.5240842,23.0864651 L34.7959432,13.1740648 Z M11.9655688,14.5259548 L4.11460957,16.3511098 L3.96286996,16.3909995 C2.66296113,16.7753554 1.85424825,18.0783821 2.08097116,19.4231812 L2.11187939,19.5779793 L3.635,26.227 L11.7661096,14.7736894 C11.8260073,14.6841272 11.892865,14.6014206 11.9655688,14.5259548 Z M12.7948666,0.0355289321 L24.5175641,1.68492237 C24.611863,1.69820029 24.7034538,1.71848375 24.791885,1.74517325 L24.2438735,1.0638302 C25.7019155,0.809737537 27.1884446,1.50482183 27.9729754,2.80751632 L34.0781355,12.9504647 C34.5965483,13.8119379 34.3398606,14.916312 33.5046874,15.4176693 L21.2748492,22.2886669 C20.5980778,22.6950229 19.7243096,22.5884272 19.1352993,22.0276517 C19.2260382,21.9771224 19.3140387,21.9217787 19.3988439,21.8596438 L19.5253665,21.7634762 L22.2280577,19.5605083 C22.1873782,19.5689801 22.1461929,19.5761078 22.1045497,19.5818433 C22.1227611,19.4761363 22.1355091,19.369518 22.1409725,19.2610773 L22.1464359,19.0970492 L22.1464359,4.6419841 L22.1418831,4.48160109 C22.0607015,3.097906 21.9576209,2.9939828 20.574982,2.91273915 L11.9514706,2.15706004 C12.0083338,2.2048099 12.0628778,2.25665664 12.114705,2.31258624 L21.4851286,13.0070835 C22.0289703,13.5938647 22.1198518,14.4729077 21.7076654,15.1595495 C21.6385775,15.0801155 21.5654358,15.0042985 21.4864275,14.9329277 L21.3651961,14.8271154 L10.3853593,5.8708563 L10.2607335,5.77496875 C9.15975,4.97977559 7.64250528,5.14006836 6.73006019,6.14797477 L6.6279914,6.26781198 L0.272265668,14.1738244 C-0.297686892,12.7900978 0.0451781875,11.1957442 1.13237585,10.1742343 L9.5981707,2.22386658 C9.6998016,2.12844318 9.80957116,2.04730025 9.92504312,1.98035191 L9.08519828,1.90818281 C9.81022917,0.570527052 11.2890115,-0.175967567 12.7948666,0.0355289321 Z M26.0673568,3.74256348 L23.6598058,18.0290441 C23.6366736,18.1943831 23.5916488,18.3524546 23.5277378,18.5002572 L30.373654,12.9135471 L30.491167,12.8118076 C31.4787557,11.9014095 31.6162712,10.3661389 30.8111694,9.23918756 L30.7142029,9.11153933 L26.0796444,3.34537089 C26.089827,3.47524557 26.0861653,3.60821948 26.0673568,3.74256348 Z" fill="url(#linearGradient-2)"></path>
                </g>
            </g>
        </g>
    </g>
</svg>