<?xml version="1.0" encoding="UTF-8"?>
<svg width="32px" height="32px" viewBox="0 0 32 32" version="1.1" xmlns="http://www.w3.org/2000/svg" xmlns:xlink="http://www.w3.org/1999/xlink">
    <title>tiexin</title>
    <defs>
        <linearGradient x1="100%" y1="50%" x2="0.824167833%" y2="50%" id="linearGradient-1">
            <stop stop-color="#46DDB7" offset="0%"></stop>
            <stop stop-color="#00C2C6" offset="100%"></stop>
            <stop stop-color="#00BCD4" offset="100%"></stop>
        </linearGradient>
    </defs>
    <g id="home-page" stroke="none" stroke-width="1" fill="none" fill-rule="evenodd">
        <g id="1-首页" transform="translate(-406.000000, -2506.000000)" fill-rule="nonzero">
            <g id="btm2" transform="translate(0.000000, 2347.000000)">
                <g id="cont" transform="translate(406.000000, 30.000000)">
                    <g id="tiexin" transform="translate(0.000000, 129.000000)">
                        <circle id="椭圆形备份-2" fill="url(#linearGradient-1)" cx="16" cy="16" r="16"></circle>
                        <path d="M17.4928643,8.66528667 C17.12383,8.88936931 14.6756023,10.2805491 12.974444,12.8668362 C12.8304306,13.0815821 12.5424038,13.1562763 12.3263837,13.0162247 C12.1013628,12.8668362 12.0383569,12.5587226 12.1823703,12.33464 C13.028449,11.0088177 13.9555353,10.0471296 14.7116056,9.39355526 C14.9006232,9.22549328 14.8826215,8.91737964 14.6756023,8.77732799 C14.6215972,8.73998088 14.5675922,8.70263378 14.5045864,8.66528667 C11.7773326,6.87262552 6.27782105,8.66528667 7.07889557,14.6781709 C7.75395837,19.7293672 11.4263,22.4370325 13.8475252,23.6974973 C14.2075587,23.8842329 15.0806399,24.2857143 15.9987253,24.2857143 C16.9528141,24.2857143 17.7628895,23.9029064 18.122923,23.7161709 C20.5441482,22.4650428 24.2434923,19.7480408 24.9185551,14.6781709 C25.7196296,8.67462345 20.4181365,6.86328874 17.4928643,8.66528667 Z" id="路径" fill="#FFFFFF"></path>
                    </g>
                </g>
            </g>
        </g>
    </g>
</svg>