<?xml version="1.0" encoding="UTF-8"?>
<svg width="32px" height="32px" viewBox="0 0 32 32" version="1.1" xmlns="http://www.w3.org/2000/svg" xmlns:xlink="http://www.w3.org/1999/xlink">
    <title>jiage</title>
    <defs>
        <linearGradient x1="100%" y1="50%" x2="0.824167833%" y2="50%" id="linearGradient-1">
            <stop stop-color="#46DDB7" offset="0%"></stop>
            <stop stop-color="#00C2C6" offset="100%"></stop>
            <stop stop-color="#00BCD4" offset="100%"></stop>
        </linearGradient>
    </defs>
    <g id="home-page" stroke="none" stroke-width="1" fill="none" fill-rule="evenodd">
        <g id="1-首页" transform="translate(-406.000000, -2377.000000)" fill-rule="nonzero">
            <g id="btm2" transform="translate(0.000000, 2347.000000)">
                <g id="jiage" transform="translate(406.000000, 30.000000)">
                    <circle id="椭圆形" fill="url(#linearGradient-1)" cx="16" cy="16" r="16"></circle>
                    <path d="M15.7905525,7.19714295 C16.0108691,7.07743608 16.2538788,7.01040082 16.502012,7.0008839 C16.7465515,6.99231121 16.9894021,7.0462037 17.2095189,7.15789114 C17.2095189,7.15789114 24.885376,11.119845 25,11.1983486 L16.502012,15.5912461 L8.00007144,11.2764391 C8.07912249,11.1979354 15.7905525,7.19714295 15.7905525,7.19714295 Z M8.84196514,22.1574543 C8.32388523,21.8964959 7.99607996,21.3467781 8.0000354,20.7456286 L8.0000354,12.3122737 L11.0593471,13.9203584 L11.0593471,17.4505424 C11.0466385,17.753528 11.212952,18.0336633 11.4783177,18.1562486 L12.0119123,18.4310113 C12.0573024,18.4627152 12.1116783,18.4772899 12.1660618,18.472329 C12.2683711,18.4797764 12.3688405,18.4411141 12.4421107,18.3661009 C12.5153809,18.2910877 12.554451,18.1868909 12.5494594,18.0798109 L12.5494594,14.7045683 L15.9881802,16.5093253 L15.9881802,25.9624009 L8.84196514,22.1574543 Z M24.1778691,22.1574543 L17.1660408,26 L17.1660408,16.5093253 L24.9960474,12.3118605 L24.9960474,20.7452154 C25.0030917,21.3404937 24.6857866,21.8881867 24.1778691,22.1574543 L24.1778691,22.1574543 Z" id="形状" fill="#FFFFFF"></path>
                </g>
            </g>
        </g>
    </g>
</svg>