<?xml version="1.0" encoding="UTF-8"?>
<svg width="14px" height="14px" viewBox="0 0 14 14" version="1.1" xmlns="http://www.w3.org/2000/svg" xmlns:xlink="http://www.w3.org/1999/xlink">
    <title>kefu</title>
    <g id="home-page" stroke="none" stroke-width="1" fill="none" fill-rule="evenodd">
        <g id="1-首页" transform="translate(-1488.000000, -11.000000)">
            <g id="编组-2" transform="translate(1176.000000, 10.000000)">
                <g id="kefu" transform="translate(312.000000, 1.000000)">
                    <rect id="矩形" x="0" y="0" width="14" height="14"></rect>
                    <g id="客-服" transform="translate(1.000000, 1.000000)" fill="#999999" fill-rule="nonzero">
                        <path d="M5.84160729,0.0323415333 C9.93599707,-0.369536164 13.3499231,3.02973981 12.9712428,7.11960706 C12.6941243,10.1155545 10.31903,12.5703454 7.33166339,12.9475591 C5.81258965,13.1390676 4.38782325,12.7952228 3.19955067,12.0930249 L1.37724253,12.7212309 C1.18427519,12.7879687 0.991307846,12.6196733 1.03048167,12.4194599 L1.39900577,10.518883 C0.377584643,9.2247498 -0.169397975,7.53599298 0.0467834843,5.71376053 C0.402249642,2.72216554 2.84263363,0.328309224 5.84160729,0.0323415333 Z M4.41071429,7.42857143 L10.4464286,7.42857143 L10.4464286,6.5 L4.41071429,6.5 L4.41071429,7.42857143 Z M3.25,7.42857143 C3.50597895,7.42857143 3.71428571,7.22026467 3.71428571,6.96428571 C3.71428571,6.70830676 3.50597895,6.5 3.25,6.5 C2.99402105,6.5 2.78571429,6.70830676 2.78571429,6.96428571 C2.78571429,7.22026467 2.99402105,7.42857143 3.25,7.42857143 Z" id="形状"></path>
                    </g>
                </g>
            </g>
        </g>
    </g>
</svg>