<?xml version="1.0" encoding="UTF-8"?>
<svg width="32px" height="32px" viewBox="0 0 32 32" version="1.1" xmlns="http://www.w3.org/2000/svg" xmlns:xlink="http://www.w3.org/1999/xlink">
    <title>phone</title>
    <g id="home-page" stroke="none" stroke-width="1" fill="none" fill-rule="evenodd">
        <g id="1-首页" transform="translate(-1396.000000, -65.000000)" fill="#00C2C6" fill-rule="nonzero">
            <g id="logo栏" transform="translate(0.000000, 36.000000)">
                <g id="电话" transform="translate(1396.000000, 24.000000)">
                    <g id="phone" transform="translate(0.000000, 5.000000)">
                        <path d="M16,0 C24.8366563,0 32,7.16334375 32,16 C32,24.8366563 24.8366563,32 16,32 C7.16334375,32 0,24.8366563 0,16 C0,7.16334375 7.16334375,0 16,0 Z M12.6046875,6.41134375 C11.84,6.28134375 11.1953125,6.542 10.1893438,7.194 L9.90265625,7.38 L9.64065625,7.5446875 C7.65,8.7753125 8.49065625,13.8446875 11.738,18.5993437 C14.9766563,23.3413438 19.4806563,26.116 21.4446563,24.904 C21.5693438,24.828 22.0553437,24.544 22.1106562,24.5106563 C22.9546562,24.0086563 23.4286563,23.6006563 23.674,23.0093437 C24.0046563,22.2186563 23.7513438,21.3313437 22.896,20.3313438 C21.5126562,18.714 20.4653438,18.332 19.2806875,18.8726562 C19.0938987,18.958616 18.9126512,19.0561385 18.738,19.1646563 L18.214,19.4893438 C17.816,19.7346563 16.6,18.5706562 15.1433438,16.4433438 C13.7066563,14.34 13.0893438,12.826 13.4533438,12.6 C13.4886563,12.578 13.8693438,12.3473438 13.9766563,12.2786563 C15.466,11.342 15.7206563,10.31 14.5633438,8.13465625 C14.0166563,7.10665625 13.3673438,6.542 12.6046563,6.41134375 L12.6046875,6.41134375 Z" id="形状"></path>
                    </g>
                </g>
            </g>
        </g>
    </g>
</svg>