<?xml version="1.0" encoding="UTF-8"?>
<svg width="20px" height="20px" viewBox="0 0 20 20" version="1.1" xmlns="http://www.w3.org/2000/svg" xmlns:xlink="http://www.w3.org/1999/xlink">
    <title>ss</title>
    <g id="home-page" stroke="none" stroke-width="1" fill="none" fill-rule="evenodd">
        <g id="1-首页" transform="translate(-1199.000000, -71.000000)" fill="#FFFFFF" fill-rule="nonzero">
            <g id="logo栏" transform="translate(0.000000, 36.000000)">
                <g id="搜索" transform="translate(675.000000, 21.000000)">
                    <g id="ss" transform="translate(524.000000, 14.000000)">
                        <path d="M18.7470449,16.4526335 L15.9810875,13.8395682 C17.2012518,12.3442047 17.9515879,10.4908343 17.927502,8.51665736 C17.9515879,3.79135055 13.9347689,0 9.01497242,0 C4.01692168,0 0,3.79135055 0,8.51665736 C0,13.1519226 4.02831997,16.9432732 9.01497242,16.9365345 C10.5207243,16.9432732 11.9761114,16.5735295 13.21513,15.9687326 L16.2884161,18.7753583 C16.9529539,19.4200226 18.0669057,19.4200226 18.7470449,18.7753583 C19.4295661,18.1338187 19.4295661,17.082351 18.7470449,16.4526335 Z M2.22222222,8.56658185 C2.22222222,5.04674786 5.21284023,2.22222222 8.93977947,2.22222222 C12.5648356,2.22222222 15.5555556,5.04674786 15.5555556,8.56658185 C15.5555556,11.9901929 12.5648356,14.8148148 8.93977947,14.8148148 C5.21284023,14.8148148 2.22222222,11.9901929 2.22222222,8.56658185 Z" id="形状"></path>
                        <path d="M4.79044004,4.79160528 C3.32923306,6.2517826 2.68626009,8.34114705 3.07365234,10.3703704 C3.44495644,8.68493837 4.31791608,7.03802489 5.67771858,5.67703732 C7.0385086,4.31555592 8.68518302,3.44296338 10.3703704,3.07160538 C8.41016124,2.70222269 6.30676302,3.27456833 4.79044004,4.79160528 Z" id="路径"></path>
                    </g>
                </g>
            </g>
        </g>
    </g>
</svg>