<?xml version="1.0" encoding="UTF-8"?>
<svg width="14px" height="14px" viewBox="0 0 14 14" version="1.1" xmlns="http://www.w3.org/2000/svg" xmlns:xlink="http://www.w3.org/1999/xlink">
    <title>xiaox</title>
    <g id="home-page" stroke="none" stroke-width="1" fill="none" fill-rule="evenodd">
        <g id="1-首页" transform="translate(-1176.000000, -11.000000)">
            <g id="编组-2" transform="translate(1176.000000, 10.000000)">
                <g id="xiaox" transform="translate(0.000000, 1.000000)">
                    <rect id="矩形" x="0" y="0" width="14" height="14"></rect>
                    <path d="M1.90909091,2 L12.0909091,2 C13.3636364,2 14,2.625 14,3.875 L14,10.125 C14,11.375 13.3636364,12 12.0909091,12 L1.90909091,12 C0.636363635,12 0,11.375 0,10.125 L0,3.875 C0,2.625 0.636363635,2 1.90909091,2 Z" id="路径" fill="#999999" fill-rule="nonzero"></path>
                    <path d="M11.196902,4.06970422 C11.4599643,3.91296082 11.7792628,4.02884723 11.9258093,4.33425432 C12.0723557,4.63966141 11.9955593,5.02915628 11.7504953,5.2234087 L11.693802,5.26208781 L7.24726955,7.92961262 C7.11422435,8.00941609 6.96007072,8.02190669 6.8192908,7.96429044 L6.75036955,7.92961262 L2.30383709,5.26208781 C2.04281976,5.10271638 1.92965591,4.72767796 2.04514756,4.40476002 C2.1606392,4.08184209 2.46515597,3.92185231 2.74126472,4.03902768 L2.8007371,4.07037111 L6.99881955,6.58651388 L11.196902,4.06903734 L11.196902,4.06970422 Z" id="路径" fill="#FFFFFF" fill-rule="nonzero"></path>
                </g>
            </g>
        </g>
    </g>
</svg>